<?xml version="1.0" encoding="utf-8"?>
<!-- Generator: Adobe Illustrator 24.1.3, SVG Export Plug-In . SVG Version: 6.00 Build 0)  -->
<svg version="1.1" id="Layer_1" xmlns="http://www.w3.org/2000/svg" xmlns:xlink="http://www.w3.org/1999/xlink" x="0px" y="0px"
	 viewBox="0 0 504.4 504.4" style="enable-background:new 0 0 504.4 504.4;" xml:space="preserve">
<style type="text/css">
	.st0{fill:#FFFFFF;}
</style>
<g>
	<g id="XMLID_1_">
		<g>
			<rect x="296" y="160.2" width="84" height="20"/>
			<path d="M339.6,199.8c78.8-0.4,68,88.4,68,88.4H306.4c0,40,34.4,36.8,34.4,36.8c32.4,0,31.2-20.8,31.2-20.8h34.4
				c0,56-66.8,53.6-66.8,53.6c-80,0-74.8-78.8-74.8-78.8S264.8,199.8,339.6,199.8z M370,260.2c0,0,0.4-31.6-29.6-31.6
				S306,260.2,306,260.2H370z"/>
			<path d="M220.4,241.4c39.2-0.4,36.4,50.4,36.4,50.4c0,62.4-61.6,64.4-61.6,64.4h-56.8h-1.6H96v-208h40.4h1.6h56.8
				c30.8,0,55.2,17.6,55.2,54.4S220.4,241.4,220.4,241.4z M215.2,289c0.4-28.4-20-28.8-20-28.8H140v56h48.4c0.8,0,2,0,3.6,0
				C200,316.2,215.2,313,215.2,289z M191.6,228.2c9.2,0,17.2-2.4,17.2-23.6s-13.6-20.4-13.6-20.4H188h-48v44H191.6z"/>
			<path class="st0" d="M504.4,126.6v251.2c0,69.6-56.8,126.4-126.4,126.4H126.4C56.8,504.2,0,447.4,0,378.2V126.6
				C0,57,56.8,0.2,126.4,0.2h251.2C447.2,0.2,504,57,504.4,126.6z M407.6,288.2c0,0,10.8-88.8-68-88.4c-74.8,0-74.8,79.2-74.8,79.2
				s-5.2,78.8,74.8,78.8c0,0,66.8,2.4,66.8-53.6H372c0,0,1.2,20.8-31.2,20.8c0,0-34.4,3.2-34.4-36.8H407.6z M380,180.2v-20h-84v20
				H380z M256.8,291.8c0,0,2.8-50.8-36.4-50.4c0,0,29.6-2,29.6-38.8s-24.4-54.4-55.2-54.4H138h-1.6H96v208h40.8h1.6h56.8
				C195.2,356.2,256.8,354.2,256.8,291.8z"/>
			<path class="st0" d="M340.4,228.6c30,0,29.6,31.6,29.6,31.6h-64C306,260.2,310.4,228.6,340.4,228.6z"/>
			<path class="st0" d="M195.2,260.2c0,0,20.4,0.4,20,28.8c0,24-15.2,27.2-23.2,27.2c-1.6,0-2.8,0-3.6,0H140v-56H195.2z"/>
			<path class="st0" d="M208.8,204.6c0,21.2-8,23.6-17.2,23.6H140v-44h48h7.2C195.2,184.2,208.8,183.4,208.8,204.6z"/>
		</g>
		<g>
		</g>
	</g>
</g>
</svg>
