<?xml version="1.0" encoding="utf-8"?>
<!-- Generator: Adobe Illustrator 24.1.3, SVG Export Plug-In . SVG Version: 6.00 Build 0)  -->
<svg version="1.1" id="Layer_1" xmlns="http://www.w3.org/2000/svg" xmlns:xlink="http://www.w3.org/1999/xlink" x="0px" y="0px"
	 viewBox="0 0 512 512" style="enable-background:new 0 0 512 512;" xml:space="preserve">
<style type="text/css">
	.st0{fill:#FFFFFF;}
</style>
<g id="XMLID_1_">
	<g>
		<path class="st0" d="M512,135v242c0,74.4-60.6,135-135,135H135C60.6,512,0,451.4,0,377V135C0,60.6,60.6,0,135,0h242
			C451.4,0,512,60.6,512,135z M422,332V180c0-49.6-40.4-90-90-90H180c-49.6,0-90,40.4-90,90v152c0,49.6,40.4,90,90,90h152
			C381.6,422,422,381.6,422,332z"/>
		<path d="M422,180v152c0,49.6-40.4,90-90,90H180c-49.6,0-90-40.4-90-90V180c0-49.6,40.4-90,90-90h152C381.6,90,422,130.4,422,180z
			 M392,332V180c0-33.1-26.9-60-60-60H180c-33.1,0-60,26.9-60,60v152c0,33.1,26.9,60,60,60h152C365.1,392,392,365.1,392,332z"/>
		<path class="st0" d="M392,180v152c0,33.1-26.9,60-60,60H180c-33.1,0-60-26.9-60-60V180c0-33.1,26.9-60,60-60h152
			C365.1,120,392,146.9,392,180z M357,170c0-8.3-6.7-15-15-15s-15,6.7-15,15s6.7,15,15,15S357,178.3,357,170z M331,256
			c0-41.4-33.6-75-75-75s-75,33.6-75,75s33.6,75,75,75S331,297.4,331,256z"/>
		<circle cx="342" cy="170" r="15"/>
		<path d="M256,181c41.4,0,75,33.6,75,75s-33.6,75-75,75s-75-33.6-75-75S214.6,181,256,181z M301,256c0-24.9-20.1-45-45-45
			s-45,20.1-45,45s20.1,45,45,45S301,280.9,301,256z"/>
		<circle class="st0" cx="256" cy="256" r="45"/>
	</g>
	<g>
	</g>
</g>
</svg>
