<?xml version="1.0" encoding="utf-8"?>
<!-- Generator: Adobe Illustrator 24.2.0, SVG Export Plug-In . SVG Version: 6.00 Build 0)  -->
<svg version="1.1" id="Layer_1" xmlns="http://www.w3.org/2000/svg" xmlns:xlink="http://www.w3.org/1999/xlink" x="0px" y="0px"
	 viewBox="0 0 864 487.1" style="enable-background:new 0 0 864 487.1;" xml:space="preserve">
<style type="text/css">
	.st0{clip-path:url(#SVGID_2_);}
</style>
<polygon points="662.3,86.3 740.5,210 860.9,12.2 703,12.2 "/>
<g>
	<defs>
		<rect id="SVGID_1_" x="0" width="864" height="487.1"/>
	</defs>
	<clipPath id="SVGID_2_">
		<use xlink:href="#SVGID_1_"  style="overflow:visible;"/>
	</clipPath>
	<g class="st0">
		<path d="M324.4,245.3v-1.7c0-56.8-37.7-105-90.3-105c-54.2,0-88.8,47.3-88.8,103.3v1.7c0,56.8,37.7,105,90.3,105
			C289.8,348.5,324.4,301.2,324.4,245.3 M0,245.2v-1.7C0,111,99,0,235.6,0c135.9,0,234.1,109.3,234.1,241.8v1.7
			c0,132.5-99,243.6-235.6,243.6C98.2,487.1,0,377.8,0,245.2"/>
	</g>
</g>
<polygon points="416.3,10.8 556.9,241.4 414,476.3 571,476.3 637.8,356.7 703.8,476.3 864,476.3 721.1,240.5 577.3,10.8 "/>
</svg>
