<svg id="Layer_1" data-name="Layer 1" xmlns="http://www.w3.org/2000/svg" xmlns:xlink="http://www.w3.org/1999/xlink" viewBox="0 0 864 487.08"><defs><style>.cls-1{fill:none;}.cls-2{fill:#fff;}.cls-3{clip-path:url(#clip-path);}</style><clipPath id="clip-path" transform="translate(-207.83 -268.32)"><rect class="cls-1" x="207.83" y="268.32" width="864" height="487.08"/></clipPath></defs><polygon class="cls-2" points="662.35 86.28 740.53 210 860.86 12.24 702.99 12.24 662.35 86.28"/><g class="cls-3"><path class="cls-2" d="M532.21,513.58v-1.73c0-56.79-37.69-105-90.32-105-54.19,0-88.76,47.33-88.76,103.26v1.72c0,56.8,37.71,105,90.33,105,54.2,0,88.75-47.33,88.75-103.27m-324.38,0v-1.73c0-132.52,99-243.53,235.63-243.53,135.88,0,234.06,109.29,234.06,241.81v1.72c0,132.54-99,243.55-235.63,243.55C306,755.4,207.83,646.11,207.83,513.58" transform="translate(-207.83 -268.32)"/></g><polygon class="cls-2" points="416.31 10.76 556.9 241.39 413.95 476.32 571.04 476.32 637.8 356.71 703.78 476.32 864 476.32 721.05 240.53 577.32 10.76 416.31 10.76"/></svg>